<svg width="512" height="512" viewBox="0 0 512 512" fill="none" xmlns="http://www.w3.org/2000/svg">
  <defs>
    <linearGradient id="bgMonolith" x1="84" y1="56" x2="430" y2="458" gradientUnits="userSpaceOnUse">
      <stop offset="0" stop-color="#18263F"/>
      <stop offset="0.58" stop-color="#0B1120"/>
      <stop offset="1" stop-color="#111827"/>
    </linearGradient>
    <linearGradient id="stoneMonolith" x1="180" y1="104" x2="344" y2="404" gradientUnits="userSpaceOnUse">
      <stop offset="0" stop-color="#1E293B"/>
      <stop offset="0.5" stop-color="#0F172A"/>
      <stop offset="1" stop-color="#111827"/>
    </linearGradient>
    <linearGradient id="facetMonolith" x1="226" y1="98" x2="334" y2="164" gradientUnits="userSpaceOnUse">
      <stop offset="0" stop-color="#334155"/>
      <stop offset="1" stop-color="#1E293B"/>
    </linearGradient>
    <linearGradient id="channelMonolith" x1="172" y1="174" x2="352" y2="318" gradientUnits="userSpaceOnUse">
      <stop offset="0" stop-color="#38BDF8"/>
      <stop offset="0.52" stop-color="#2563EB"/>
      <stop offset="1" stop-color="#14B8A6"/>
    </linearGradient>
    <radialGradient id="glowMonolith" cx="0" cy="0" r="1" gradientUnits="userSpaceOnUse" gradientTransform="translate(324 226) rotate(138.123) scale(196.03)">
      <stop stop-color="#14B8A6" stop-opacity="0.28"/>
      <stop offset="1" stop-color="#14B8A6" stop-opacity="0"/>
    </radialGradient>
  </defs>

  <rect x="36" y="36" width="440" height="440" rx="120" fill="url(#bgMonolith)"/>
  <circle cx="324" cy="226" r="160" fill="url(#glowMonolith)"/>

  <path d="M188 104H308L352 148V392H160V144L188 104Z" fill="url(#stoneMonolith)"/>
  <path d="M188 104H308L352 148H232L188 104Z" fill="url(#facetMonolith)"/>
  <path d="M160 144H232L188 104L160 144Z" fill="#0F172A"/>
  <path d="M352 148V392L318 358V116L352 148Z" fill="#020617" fill-opacity="0.28"/>

  <path d="M172 188H330L302 220H144L172 188Z" fill="url(#channelMonolith)"/>
  <path d="M188 240H348L320 272H160L188 240Z" fill="url(#channelMonolith)"/>
  <path d="M204 292H364L336 324H176L204 292Z" fill="url(#channelMonolith)"/>

  <path d="M172 188H330L320 200H162L172 188Z" fill="#E0F2FE" fill-opacity="0.62"/>
  <path d="M188 240H348L338 252H178L188 240Z" fill="#E0F2FE" fill-opacity="0.62"/>
  <path d="M204 292H364L354 304H194L204 292Z" fill="#E0F2FE" fill-opacity="0.62"/>

  <rect x="182" y="348" width="150" height="18" rx="9" fill="#0F172A"/>
  <rect x="198" y="372" width="118" height="12" rx="6" fill="#1E293B"/>
</svg>
